<svg xmlns="http://www.w3.org/2000/svg" viewBox="0 0 512 512" id="invoice">
  <path fill="#00efd1" d="M300.34,441.19v51.99H23V18.82H290.84v86.2h82.84V238.84H300.34Z"></path>
  <polygon fill="#00acea" points="290.84 18.82 373.68 105.02 290.84 105.02 290.84 18.82"></polygon>
  <path fill="#f4b844" d="M162.34,76.12A101.765,101.765,0,1,1,60.57,177.88,101.763,101.763,0,0,1,162.34,76.12Zm73.74,101.76a73.74,73.74,0,1,0-73.74,73.75A73.741,73.741,0,0,0,236.08,177.88Z"></path>
  <path fill="#fedb41" d="M162.34 104.14A73.745 73.745 0 1 1 88.6 177.88 73.741 73.741 0 0 1 162.34 104.14zM300.42 449.19H80.86a8 8 0 1 1 0-16H300.34a8 8 0 0 1 .08 16zM213.26 408.08H80.86a8 8 0 0 1 0-16h132.4a8 8 0 0 1 0 16z"></path>
  <path fill="#00acea" d="M162.34 169.43A11.435 11.435 0 1 1 173.77 158a8 8 0 0 0 16 0A27.482 27.482 0 0 0 168 131.151V126a8 8 0 0 0-16 0v6.591a27.432 27.432 0 0 0 10.34 52.839 11.423 11.423 0 0 1 .641 22.828A7.933 7.933 0 0 0 161 208a8.154 8.154 0 0 0-.9.054 11.454 11.454 0 0 1-9.187-11.194 8 8 0 0 0-16 0A27.527 27.527 0 0 0 153 222.641V227a8 8 0 0 0 16 0v-3.532a27.429 27.429 0 0 0-6.66-54.038zM158 366a8 8 0 0 1-8-8V301a8 8 0 0 1 16 0v57A8 8 0 0 1 158 366zM192 341a8 8 0 0 1-8-8V301a8 8 0 0 1 16 0v32A8 8 0 0 1 192 341zM125 341a8 8 0 0 1-8-8V301a8 8 0 0 1 16 0v32A8 8 0 0 1 125 341zM300.34 441.19V238.84H489V493.18H300.34z"></path>
  <rect width="135.82" height="29.64" x="326.76" y="264.8" fill="#fedb41"></rect>
  <rect width="28.52" height="85.21" x="433.81" y="382.01" fill="#00efd1"></rect>
  <rect width="28.52" height="29.17" x="433.81" y="325.61" fill="#00efd1"></rect>
  <rect width="28.52" height="29.17" x="380.16" y="438.05" fill="#00efd1"></rect>
  <rect width="28.52" height="29.17" x="380.16" y="382.01" fill="#00efd1"></rect>
  <rect width="28.52" height="29.17" x="380.16" y="325.61" fill="#00efd1"></rect>
  <rect width="28.52" height="29.17" x="326.76" y="438.05" fill="#00efd1"></rect>
  <rect width="28.52" height="29.17" x="326.76" y="382.01" fill="#00efd1"></rect>
  <rect width="28.52" height="29.17" x="326.76" y="325.61" fill="#00efd1"></rect>
</svg>
